<svg xmlns="http://www.w3.org/2000/svg" xmlns:xlink="http://www.w3.org/1999/xlink" width="484.357" height="368.721" viewBox="0 0 484.357 368.721">
  <defs>
    <clipPath id="clip-path">
      <rect width="484.357" height="368.721" fill="none"/>
    </clipPath>
    <linearGradient id="linear-gradient" x1="0.416" y1="-0.124" x2="0.849" y2="1.015" gradientUnits="objectBoundingBox">
      <stop offset="0" stop-color="#cbe09c"/>
      <stop offset="1" stop-color="#283e0a"/>
    </linearGradient>
  </defs>
  <g id="Wiederholungsraster_1" data-name="Wiederholungsraster 1" clip-path="url(#clip-path)">
    <g transform="translate(-932.965 739.407)">
      <g id="Komponente_1_4" data-name="Komponente 1 – 4" transform="translate(932.965 -739.407)">
        <path id="Vereinigungsmenge_1" data-name="Vereinigungsmenge 1" d="M204.155,51.441c31.293,6.1,61.959,16.22,68.386,47.846s.131,63.888,0,65.2c57.18-5.467,122.243-53.992,156.587-96.129,1.6-2.024,28.333-39.708,30.931-39.527,2.568.181-1.269-2.235,0,0,7.219,12.415-13.411,118.122-23.681,132.077,1.994-.876,4.168-1.359,6.041-2.416,2.386-1.269,39.531-22.171,41.857-20.781s-45.24,81.737-66.988,96.9a5.793,5.793,0,0,0,.725,0c2.658-.453,57.573-19.377,59.355-17.353s-81.345,74.623-108.651,82.114a145.679,145.679,0,0,0,91.342,19.573,7.737,7.737,0,0,1,5.075,14.257A223.007,223.007,0,0,1,344.31,368.721c-72.162,0-128.767-30.145-166.736-73.219s-57.753-99.014-57.753-151.27c0-2.205.181-4.35.242-6.524-14.167-10.844-26.823-23.56-36.73-38.422A7.736,7.736,0,0,1,93,87.929c3.987,1.782,8.639,1.963,12.807,3.383-5.5-7.34-101.6-81.394-104.444-90.3-.967-3.051-2.507,1.994,0,0,2.507-1.963,100,55.538,102.752,57.2a144.9,144.9,0,0,0,43.255,16.674C162.35,60.865,172.862,45.339,204.155,51.441ZM184,66.906c-12.505,5.437-21.461,12.77-29.869,21.748a7.783,7.783,0,0,1-7.249,2.175,159.151,159.151,0,0,1-29-8.7c5.377,7.249,25.01,23.923,23.712,27.638a7.718,7.718,0,0,1-8.971,4.984c-7.733-.936-14.62-4.078-21.99-6.041a146.863,146.863,0,0,0,21.748,19.332,7.706,7.706,0,0,1,3.141,6.766c-.121,3.141-.242,6.253-.242,9.424,0,48.329,18.546,100.8,53.887,140.879s87.234,68.144,155.137,68.144a206.8,206.8,0,0,0,86.268-18.848c-32.622-2.507-62.707-14.046-86.993-33.105a7.736,7.736,0,0,1,4.591-13.774c25.494-.453,46.849-15.284,58.237-36.247H405.2a84.344,84.344,0,0,1-22.231-2.9,7.732,7.732,0,0,1,.483-14.982c27.517-5.558,48.148-27.97,52.921-55.82-7.793,2.688-15.767,4.8-24.406,5.075a7.732,7.732,0,0,1-4.591-14.257c18.365-12.294,35.814-77.306,32.793-85.039-31.047,34.078-87.456,73.838-126.221,89.293-8.968,3.576-56.632,10.366-56.941,10-.878-1.047,10.553-51.565,0-83.368C248.812,74.58,196.509,61.469,184,66.906Z" transform="translate(0.001 0)" fill="url(#linear-gradient)"/>
      </g>
    </g>
  </g>
</svg>
