<svg xmlns="http://www.w3.org/2000/svg" xmlns:xlink="http://www.w3.org/1999/xlink" width="4257.068" height="3871.588" viewBox="0 0 4257.068 3871.588">
  <defs>
    <linearGradient id="linear-gradient" x1="0.5" x2="0.5" y2="1" gradientUnits="objectBoundingBox">
      <stop offset="0" stop-color="#558640"/>
      <stop offset="1" stop-color="#9ab9e3"/>
    </linearGradient>
  </defs>
  <g id="surface24846457" transform="translate(-30.013 -59.834)" opacity="0.995">
    <path id="Pfad_5" data-name="Pfad 5" d="M4035.916,60.121c-47.161,2.08-93.073,15.2-134.448,31.768-40.958,16.451-276.839,117.127-625.156,266.06S2475.221,700.783,2026.38,893.095C1128.7,1277.681,246.6,1656.1,246.6,1656.1l6.429-2.458s-53.25,17.813-107.218,55.406c-27,18.8-56.011,43.076-79.8,78.475s-41.148,85.548-34.6,138.608c22.994,186.336,216.138,239.208,216.138,239.208l.756.378L1110.2,2460.711c21.973,73.294,261.408,872.495,314.091,1041.737,29.083,93.565,56.313,147.533,84.715,184.369,14.22,18.418,29.121,32.676,45.573,43.115a124.181,124.181,0,0,0,20.233,10.022c.151.075.227-.076.378,0,.832.378,1.626.416,2.458.756l-2.269-.567c1.588.643,3.139,1.7,4.727,2.269,3.063,1.059,4.954,1.021,8.887,1.891,98.709,34.454,180.4-29.5,180.4-29.5l3.4-2.648,529.472-491.085,859.258,669.971,10.778,4.917c150.408,66.789,286.407,29.537,361.743-31.769S3639,3723.88,3639,3723.88l3.215-8.32L4273.611,424.7c16.149-73.634,18.456-137.247,3.215-194.77s-52.267-107.483-98.708-135.2S4083.077,58.041,4035.916,60.121Zm5.106,196.85c19.137-.87,33.357,1.286,37.82,3.971s6.467,2.307,10.779,18.532,6.619,50.375-5.105,103.814l-.378,1.135-627.8,3271.76a162.623,162.623,0,0,1-44.438,57.864c-30.483,24.809-64.369,44.135-154.3,6.429l-939.624-732.752-26.474-20.8-.567.568-281-210.844L3589.08,898.767a96.825,96.825,0,0,0-127.452-143.336L1176.577,2278.8,313.348,1983.24s-85.7-47.69-89.821-80.934c-.227-1.853-1.248-.189,3.215-6.807s15.657-17.813,29.688-27.608c28.062-19.553,60.133-31.39,60.133-31.39l3.215-1.135,3.215-1.324s882.177-378.422,1779.783-763.007c448.8-192.274,901.5-386.061,1249.743-534.956,348.128-148.857,599.7-256,621-264.547A210.164,210.164,0,0,1,4041.022,256.971ZM2993.8,1300.032,1796.249,2709l-.567.567c-1.853,2.269-3.631,4.576-5.295,7a98.893,98.893,0,0,0-17.964,45.383v.757L1616.417,3464.25c-2.609-7.564-4.425-10.363-7.186-19.288v-.189c-49.544-159.22-275.477-912.924-306.716-1017.154ZM1931.453,2939.883l215.193,161.489-316.171,293.1Zm0,0" transform="translate(0 0)" fill="url(#linear-gradient)"/>
  </g>
</svg>
